<svg xmlns="http://www.w3.org/2000/svg" fill="none" width="730.985" height="809.723"><defs><linearGradient x1=".5" y1="0" x2=".5" y2="1" id="b"><stop offset="0%" stop-color="#1A7069"/><stop offset="100%" stop-color="#005147"/></linearGradient><filter id="a" filterUnits="objectBoundingBox" color-interpolation-filters="sRGB" x="0" y="0" width="730.985" height="809.723"><feFlood flood-opacity="0" result="BackgroundImageFix"/><feColorMatrix in="SourceAlpha" values="0 0 0 0 0 0 0 0 0 0 0 0 0 0 0 0 0 0 127 0"/><feOffset dy="12"/><feGaussianBlur/><feColorMatrix values="0 0 0 0 0.007843137718737125 0 0 0 0 0.24313725531101227 0 0 0 0 0.23529411852359772 0 0 0 1 0"/><feBlend in2="BackgroundImageFix" result="effect1_dropShadow"/><feBlend in="SourceGraphic" in2="effect1_dropShadow" result="shape"/></filter></defs><g filter="url(#a)"><path d="m276.382 797.723-.952-.954.952.954Zm-40.981-5.731.953-.955-.953.955Zm42.887-35.348.953.955 1.906-.955-1.906-.955-.953.955Zm-5.718-1.912.953.957-.953-.957Zm2.86.957.952.955-.952-.955-.953-.957.953.957Zm1.905 0-.953-.957.953.957Zm2.859-1.911.953.954.953-.954h-1.906Zm-7.624 0v.954l.953-1.91-.953.956Zm11.437-3.821-.953-.956.953.956Zm1.906 0 .953-.956-.953.956Zm-7.625-4.777.953-.956-.953.956Zm79.103-52.545.953-.955-.953.955Zm-14.295-27.705-.954-.956.954.956Zm.953 0 .952.955.953-.955-.953-.956.953-.955-.953-.956-.952 2.867Zm2.859-8.599-.954-.955.954.955Zm.953-1.91.953.955-.953-.955-.953-.956.953.956Zm42.887-3.822.953-.955-.953.955Zm-60.042-5.732 1.906.955.953-.955-.953-.955-.953-.957-.953 1.912Zm26.685-.955-.953 3.821-.953 1.911-.953.955 1.906.955h.953l1.906-.955.954-.955 1.905-.956.953-.955-.953-.955.953-.956-.953-.955-.952-.955-.953-.957-2.86.957Zm30.498-11.465.953-.955-.953.955Zm-2.86-.955-.953 1.911h-1.906l-.953 1.91.953.956-.953.955-1.906.955.953.956.953.955-.953.956-3.812.955-2.859-.955-.953-.956-.953-.955-.953-.956-1.905-.955-.954.955-.954.956-.953 1.911.953.955.954.954.954 4.778-2.861.955-1.906.956.953.955.953.955.953.956 1.908.955.953.956.952.955.953-.955.953-.956 1.906-2.866.953-.955.953-.956 7.624-.955 2.86.955.953.956-1.906.955 1.906.955 1.905-.955.954-.955.953-.956.953-.955-.953-.955.953-.956.953-1.91-.953-4.777-.953-.956-.953-1.91-.954-.956-1.905-.956-.953-2.865-.953-.956-.954.956Zm7.625-.956-.953-.955.953.955Zm-10.484-2.866.953-.955-.953.955Zm-36.216-.955-.953-.956.953.956Zm35.263 0-1.906-.956 1.906.956Zm-41.934-.956-.953.956-.953.955-.953.956-.952 1.91-.953 2.867-.954 4.776-.953 4.776.953.957.954 1.91.953.956 2.858.955 4.766.955 1.905-1.91.953-.956.954-.955.953-.955 1.906-1.911 1.907-.955.953-2.867.952-.955-.952-2.867v-1.91l-.953-1.911-.954-.955-4.766-1.911-.953-.955-.952-.956-1.907-.955-2.859.955Zm98.165-45.856.953-.956-.953.956Zm2.858-2.866.953-.956-.953.956Zm99.117-23.884.954.955.953.955v-1.91l-.953-.956-.954.956Zm-62.901-5.733h.953l-.953-.955-.953-.955.953 1.91Zm-12.389-1.91-.953-.956.953.956Zm-9.53-6.688.953-.955-.953.955Zm23.825.955.953-1.91-.953 1.91Zm1.907-3.821-.954-.955.954.955Zm46.698-3.821.953.955.953-.955-.953-1.911-.953 1.911Zm5.719-4.777-.953-.955.953.955Zm17.155-.955.952-.956-.952.956Zm-78.15-3.823.953-.954v-.956l-.953 1.91Zm2.859 0 .953.956.953-.956.953-.954-1.906-.956-.953 1.91Zm86.727-1.91.953-.955-.953.955Zm-.953-4.776.953-.956-.953.956Zm8.577-1.912h.953l-1.906-.954.953.954Zm-8.577-1.91.953.956.953-.956-.953-.955-.953.955Zm2.859-.955 1.906.955-.953-.955h-.953Zm-2.859 0-.953-.956.953.956Zm-16.202-1.911-.953-.955-.953 1.91-.952.956-.953.955-1.907.956.953 1.91-.953 2.866 4.765.956.953.955 2.859.955.953.956.954.954.953.956.952.956.953.955.953-.955.953.955 1.906-.955-.953-.956.953-.956-.953-.954.953-2.866 1.907.955.954-.955.952-.956-2.859-.955-.954.955-.953-.955-.953.955-.953.956-1.906-.956-.952-.955-1.907-.955-.953-3.822-.953-.955-.953.955-.953-2.866.953-.955-.953.955Zm36.216.955.953-1.91-.953 1.91Zm-20.967-1.91-.952-.956.952.956Zm-10.483-1.911.953.955h1.905l-.953-.955-.952-.956-.953.956Zm31.45 0 .953-.956-.953.956Zm3.813-2.866.952-.955-.952.955Zm1.905-.955.953.955.953-.955-.953-.956-.953.956Zm-62.9-2.867v.956l.953-2.866-.953 1.91Zm20.966-.955.953-.955-.953.955Zm-18.108-1.911.953.956h1.906l-.953-.956-.953-.955-.953.955Zm50.511-.955-.952 4.777.952.955v-.955l2.86-.956-.953-.955-.954-.955.954-.956-.954-1.91-.953.955Zm-.952-.955.952-.956-.952.956Zm-62.902-.956.953-.955-.953.955Zm29.545 0-.952-.955.952.955Zm1.906 0-.953.956-.953.955.953.955h2.859l-.953-3.821-.953.955Zm-33.357-.955v.955l.953-1.91-.953.955ZM548 492.01l.954-.956-.954.956Zm32.404-1.911-.953-.956-.953.956-.954.955.954.956-.954.955h2.86l.953-.955.953-.956-.953-1.911-.953.956Zm-.953-.956-.953-.956.953.956Zm-5.719-5.732.954-.955-.954.955Zm21.92-.955-.953-.955.953.955Zm-64.807-2.867h1.907l-.953-.954-.954.954Zm81.962 0v.956l.953-1.91-.953.954Zm-19.061-.954.953.954-.953-.954-.952-.956.952.956Zm-21.92-.956.953-.955-.953.955Zm-34.309-.955-.953-.955.953.955Zm64.807-3.821.953-.956-.953.956Zm-28.592-2.867-.953-.955.953.955Zm-.953-1.91.953-.956-.953.956Zm-6.67-1.911.953-.955-.953.955Zm-2.86-12.421-.953-.954.953.954Zm38.123.957.952-.957-.952-.954v1.911Zm5.717-2.866-.953-.956-.953.956-1.906-.956.953.956-.953.955.953.954.953.957.953-.957.953.957.953-3.822-.953.956Zm-53.371-1.911.953-.955-.953.955Zm23.826-7.643-2.858.955-.954-.955-.953.955-.953.956v.954l4.765.956 1.907-.956.953.956.953-3.821-.953-.955-1.907.955Zm-15.248-.955-.953.955-.953.955-.953 1.91-.952.956-.954-1.91-.953.954.953.956 1.906.956.953-.956.953-.956.953-.954.953-.956.953-1.91-.953-.956-.953.956Zm23.826 0 .953-.956-.953.956Zm9.53 0 .953-.956-.953.956Zm1.906 0-.953-.956.953.956Zm-39.073-.956.952.956.953-.956v-.955l-1.905.955Zm6.67-.955 1.907.955-.953-.955h-.954Zm5.718.955-.953.956v.955l.953.955.953-.955.953-.955-.953-1.911-.953.955Zm-6.671-.955.953-.955-.953.955Zm3.812 0 .953.955.953-.955-.953-.955-.953.955Zm1.906 0 .953-.955-.953.955Zm-2.858-3.822-.953-.955.953.955Zm3.811-8.598-.953-.955.953.955Zm1.906-1.91.953.955.954-.955-.954-.956-.953.956Zm2.86 0 .952-.956-.952.956Zm42.887-32.483-.953 1.911.953-.956.953-.955.953-.955-.953-.955-.953 1.91Zm1.906-.955.953-.955-.953.955Zm-39.075-1.911-.953-.955.953.955Zm30.497.956.953.955.953-.955.953-.956-1.906-.955-.953 1.911Zm-44.792-26.75-.953-.956.953.956Zm4.764-1.911-.953-.956.953.956Zm.953 0-.953 1.911.953.955.953-.955 1.907-.956-.953-.955-.954-.956-.953.956Zm45.747-3.822.953-.955-.953.955Zm-8.577 1.911-.953.955 1.905.956.953.955 2.859-.955.953-.956.953-.955.954-1.911-1.907-.955-.953.955-.953.955-.953-.955-.953-.955-.953-.955-.952 3.821Zm15.248-13.375-.953-.955.953.955Zm-43.84-.955.953-.956-.953.956Zm40.981-.956v.956l-.953.955-1.906.955-1.906.956.953 1.91-.953 1.911 1.906.956-.953-.956.953-1.911 3.812-.955v-.955l.953 1.91.953-1.91-.953-.956-.953-.955-.953-.955.953-1.911-.953.955Zm-28.592-3.821.953-.955-.953.955Zm26.686-1.911-.953.956.953.955.953-2.866-.953.955Zm36.215-10.509-.953.956.953-.956.953-.955-.953.955Zm-38.121-3.822-.953-.954.953.954Zm-10.484-.954.954-.956-.954.956Zm84.821 0 .953-.956-.953.956Zm-78.15-.956.953-.955-.953.955Zm81.962 0v.956l-.952-.956-.953-.955-.954.955.954.956.953 1.91.952.956.953-.956 1.906-.956-1.906-.954.953-.956-.953-.955-.953.955Zm-92.445-6.688.953.956.953-.956-.953-.955-.953.955Zm4.766.956.953-.956v-.955l-.953 1.911Zm-.954-1.911-.953-.955.953.955Zm35.264-12.419-.954.955.954.955.953-2.866-.953.956Zm-13.344-3.823-.953-.954-.953.954-.952.957.952.955-.952.955-.953.956.953.955h1.905l1.906-.955.953-.956.953-2.867-1.906-.954-.953.954Zm13.344-2.865-.954.956h1.907l.952-.956-.952-.955-.953.955Zm-20.015-1.911-.953.956.953.955.953-.955-.953-.956Zm0 0-.953-.955.953.955Zm-5.718-.955.953-.955-.953.955Zm27.638-.955.953.955.953-.955-.953-.956-.953.956Zm-52.417-1.912.952.956.953-1.91-1.905.954Zm-.953-5.731.953.955.952-.955-.952-.956-.953.956Zm53.37 0-.952.955-.953 1.911-.954.955-.953.956-.953 1.91.953.956.953.955h.954l.953-.955.952-.956.953-.956.953-.954.953-4.777-1.906-.956-.953.956Zm-57.183-3.822-.953.955-.953.956.953.955 3.812.956.954-.956.953-.955.952.955.953-1.911-1.905-.955-1.907-.955-2.859.955Zm86.727-2.866 3.813.956-1.907-.956-.953-.955-.953.955Zm-3.812-.955.953-.955-.953.955Zm-88.633-4.777-.953.955-1.906.956-3.812-.956-.953-.955-1.907-.955-.953.955-.953.955-.953 3.822.953 1.911.953.955.953.955 5.719-.955 1.906-.955.953-.956 4.765-2.866.953-.955-.953-1.911-1.905-.955-1.907.955Zm10.484 0 .952.955.953.956.953-.956-.953-.955-2.858-.955.953.955Zm49.558-1.911.954.956v-.956l-2.86-.955 1.906.955Zm32.403-1.91v-.956l-.953 1.911.953.955 1.906-.955.954-.955-1.907-.956-.953.956Zm-58.136-11.465-.953-.956.953.956Zm26.687-4.776 1.905.955.953-.955-.953-.956-1.905.956Zm-.954-4.778-1.906-.955 1.906.955Zm13.342-9.553-.953.955.953.956.953-2.866-.953.955Zm5.719-8.598-.953.954-.954-.954v.954l.954.957-.954.955.954.955 1.905-.955-.952-.955.952-.957-.952-.954Zm0 0-1.907-.955 1.907.955Zm5.718 0h-.953l-.953.954 4.766.957.952-.957-.952-.954-1.907-.955-.953.955Zm11.437-3.821 1.905.955-1.905-.955Zm-6.672-.956-.953.956-.952 1.91.952 1.911 1.906.954.953.957 2.859.955h.954l.953-.955 2.858-.957-.953-.954-.953-1.911-.952-1.91-.953-.956-4.766-.955-.953.955Zm26.685 0 .953-.955-.953.955Zm-1.906-.955-.952-.955.952.955Zm-4.765-1.912h1.906l-.953-.954-.953.954Zm37.17-.954h.953l-.953.954 1.905.957-.952-.957.952-.954-.952-.956-.953.956Zm-2.86-2.866.953.955-.953.955.953-.955.953-.955-.953-.956-.953.956Zm1.906 0 .954-.956-.954.956Zm-43.84-16.241-.953.955h1.906l.954-1.911-1.907.956ZM568.014 492.01l.953-.956.953-.955.953.955-.953.956-2.858.955.952-.955Zm-4.765-131.84-.953-1.911.953-.955.953-.955-.953 3.821ZM182.603 201.771l1.334.446-.953.319-.381-.765Zm5.146-.19-.636-.638.636-.318.954.956 2.179.545-1.226.41-1.907-.955ZM426.963.955l-.953 1.911-.953 1.91-.953.956-2.858.955-1.907-.955-.953.955-.953.956-3.812.955-.952.956-.953-2.867-.954-.955-.953-.955-.954-.956-.953.956-.953-.956-.953.956-.953-.956-.952.956-.953.955-3.813.955-.953-1.91-.953.955-.953 2.866.953.956-.953.955-.952.955-.953-.955-.954.955-.953-.955-.953.955-1.907-.955-.952-.955-.953-.956.953-.955-.953-.956-.953-2.866-1.907-.955-.953.955-.953.956-.953.955-.953.955-3.811.956-.954.955-.953.956-.953.955-.953.955-.953.956-.953.955-1.905 1.91.952.956.953.956.953.955.953.955.953.956.953-.956 1.907.956.953 3.82-.953.956-.954.956-.953.955.953 1.91.954.956-.954.956-.953 1.91.953.956-.953 2.866-5.717.955-.953-.955-1.908.955-.953.955-.953-.955-2.859.955-.952.956-1.907.955-.953-.955-.953.955-.953.955-2.859.956-4.765.955-2.86-.955-.953-.956-1.905.956-.954.955-.953.956-.953 2.866.953 1.91-1.906.955-.953-.955-.953 1.911-.953 2.866-.952 1.91.952.956-2.859.956-.953-1.911-2.859-.956-.953.956-.953-.956-1.906-.955-2.86.955-.953-.955-.953.955-.953.956-.953.955-.952.956-.953.954-.954-.955-3.812-.955-1.906.956-.952.954-.953.956-3.813.956-1.907.955-.953.955-.952-1.91-.953.955-.954.955-1.906.956-1.906.955-.953.955-.953.956-.952.954-.953.957-.954.955-.953.955.953.956-.953 3.821.953.954-.953 1.912-.953.955-.953.956-.953.955-.953 1.91-.953.956-.953.955-1.907.956-.953-.956-.953-.955-.953-1.91-.953-.956-.953-.955-.953 1.91-.952-.955-.953.956-.954-.956-.953-1.91-1.906-.956-1.906-.955-2.858-.957-1.907-.954-.953-.955-.954-.956.954-1.91-.954-.956-.953-1.91-.953-5.733-1.905-.955-.953.955-.954-2.866-.953-.956-.953-.955-1.906-.955-.953-.955-.953-.956-.952.956-.953 2.865-.954.956-1.906.956-.953.955-.953.955-.953.956-.952-.956-.954-.955-.953.955-.954.956-.953.955-.953.955-.953.956-.953.954-.953.957-.952.955-2.86.955-2.859.956-.953.955-.953 1.91-.952.956-1.906.954-.954-4.775-.953-.956-.954-.955-.953.955-.953.956-.953 1.91-3.812.956.954.955-.954 1.91 1.907.956.953.955.952 4.777-.952 1.91.952 2.867.953.955-.953.956-2.858.955-.954 2.866-.953.956-.953 1.91-.953.956-.953-.956-.953.956-3.812.955-1.906.955-.953 1.91.953.956-.953.956-1.906.955-2.859.955-3.813-.955-.953-.955-.953.955-1.905-.955-.953.955-.954.955-.953 2.867.953.955.954 1.911-.954.955.954.955-2.86.956-.953-.956-.953-2.867-.953-.954-.953-.955-1.905-.956-.954-.955-1.907.955-.953.956-.953 2.866-.953 1.91-.953.956-.952.955.952.955.953.956-.953.955.953.954.953 4.778-.953.956.953.955.953.955 2.86.955.954.956.953-.956.952-.955.953-.955.953-.955.953 1.91.953.955.953.956.953 1.911-.953 2.866.953 1.911.954 1.91-.954 1.911.954 3.821.953.956.953 2.866.952 3.821-.952.956-.953.955-.953.954-.954 1.912-.953 1.911.953.955-.953.956.953 1.91-.953 1.911.953.955.954.956.953-.956 2.858.956.953 1.91-.953.956 2.859.955.953.955 1.907.955-.953 2.867-.954.955-.953 2.866-.953 1.91-.953.956-.953.956-.953.955-.952.955-.953.956-2.86.955-.953.956-.953 1.909-.953.957-1.906.955-.952 1.911-.953 1.91-.954.956-.954 1.91.954 3.822.954.955-.954.956-.954.955-.953.955-4.764.955-.953.956-1.907.955-1.906.956-.953.955-.953.955-1.905 3.821-1.907 1.912-5.719-1.912-1.905.956-.954.956-.953.955-4.765.955-4.765-.955-3.812.955-.952.956-1.907 1.91-1.907.956-6.671-.956-1.906.956-1.906.954-.953.957-.953.955-.952.955-1.907 1.911-.953 1.911-.953.955-.953 1.911-.953.955-.954 1.911-1.905 2.866-.953.955-.954.955-2.859 1.911-.953.956-.953.955-1.905 7.643-.953.955.953 1.911.952 1.911.953 1.91-.953 2.866-1.905 1.911-1.907.956-.953.955-.953 6.687.953.956.953 1.91.953.956 1.907.955 1.905 1.911.953 3.821-.953 5.733-.953 2.866-.952.954-.953.956.953.956.952.955.953.955.953.956.953.955.953 1.911.953.954.953.957.954.955-.954.955 1.907.956-.953.955.953.955 3.812.956.953 1.909-.953 2.867-.953.956-.954.955-.953.956-.952 4.776.952 2.866-.952.956-1.907.955-5.718.956.953-2.867-.953-2.866-.952.956-1.907-.956-1.906-.955-.953 1.911-.953 1.91-.953-.955-.953 3.822-.953.954-.953.956-2.86.956-.953 1.91-.953.956-.953.955-.953 2.865-.952.956-1.907.956-.953.955.953 1.911-2.86.955-.952.956.953.955-.953 3.821-.953 2.866.953.956-.953.955.953.955.953.956-.953.955.953.956-.953.955.953.955-.953.956 1.906.955.953.955.953-.955.954.955-.954.955 2.86-.955 2.858-.955 1.906-.955.953.955.954 1.91-.954.956.954 1.911.954 3.821-.954.956-.954.954-1.906.956-.953.956-.953.955-.953.955-.953.956-1.905.955-.954 1.911-.953.954-.953.957-.953 1.91h-.953l-.953.956-.953 1.91-.952.956-.953.955-.954 4.777.954 1.911-4.767.955-.953.955-.953 1.911-1.905.955-.954 1.911-2.859.956-2.859.955-.952.955-2.86.956-.953.954-.953-.954-1.906-.956-1.906.956-.953.954-.954-.954-.953.954-.953.956-.953 1.911-.953.955-.953-.955-1.905.955-.953.956-.954.955-.953.955.953.956-.953 2.866.953.955.954.956.953.955.952.955.953 1.911.953.954.953.957.953 5.732-.953.955-.953-1.91-.953-.956-3.812.956-.953.955-.953 1.91-.953 1.911-.953 4.777-4.765.955-.953-.955-.953.955-.953 2.867.953.955-.953.955.953.956-.953.955.953 1.911.953.954-.953.956-.953-.956-.954.956-.953.956-.953.955.953 1.911-.953.955.953.956.953 3.821.954 1.911.953.955-.953.955-1.907.956-.953.955-.952 3.822.952.955-2.859.955-.953 1.911-.953 2.866 1.906.956-.953 3.821.953 5.732-.953.955-.953-.955-.953 1.911.953 1.911-.953.955-.953 3.821.953 1.911-.953.955.953.956.953 1.91-.953.956.953 1.91-.953 1.911-.953.956-.953.955-.953-.955-.952.955-1.907.955-1.906-.955-.953.955.953 3.822-.953.955-.953 1.911-.953.955-.954.956-.952.954-1.907-.954-.953.954-.953.956-2.859.956-.953-.956-.952.956L0 523.536l.953.956-.953.955.953.956.952.955.953-.955.953 1.91.953 1.911-.953.954-.953 1.912.953.955.953.956-.953.955 2.86.955.952.956.954.955.953.955-.953.956.953.955.953.956.953.955-.954.955-.952.956-.953-.956-.954.956-.953.955-.953.955-1.906.955-.953 2.867.953.955 2.86.956.952 1.91 1.907.956.953 1.91-1.906.956-2.86-.956-.953-.956-.953-.954-.953.954-.953.956.953.956.953.955.953.955.953.956.953.955.953.955 2.86.956 5.718.954.954.957.953-.957.952 1.912 1.906.955 1.906.956.953-.956.953-.955.954.955.953 1.911.952 1.911.953.955.953.955.954.956.953.955.953.956 1.907-.956.953.956-.953.955.953.955.952-.955 5.718-.955 1.907.955.952-.955.953-.956.953-.955.953-.956.953-.955.953-.955.953.955.954.955.953 1.911.953.956.953.955.953 1.911 1.906.955.953-.955.953 1.91-.953.955-.953 1.911.953.956 1.907.955 5.717-.955 1.906-.956.954-.955.953-.956.952-.955.953-.955.953.955.953-.955.954-4.777.953-1.911.953-.955.954.955.953-.955 2.858-.955-.953.955.953 1.911 1.906.955.953.956.953.955-1.906.955-1.906.956-1.906.955-.952 3.821.952.956 1.906.955.953 1.911.953.955.953.955.953.955-.953.956.953.956-.953.955 1.907.955.953.956.952 2.866 2.86.954 3.813-.954.953.954.952 1.912.953 5.732.953.954.953 4.778-.953 1.911.953.955.953.955 1.906.956.954-.956 2.858-.955.953-.955.953-.955.953-.956.953-.955.953-1.911 1.907-.955 1.905.955.954.955.953.956.953-.956 1.906-.955 1.907-.955 4.764-.957.953.957.953-.957 4.765-.954.953.954 1.906.957.954-1.911.954-.955 4.764-.956.953 1.911.953 2.866-.953.955-.953.956-.953.955.953 1.911-.953.955-.953.955-.953.956-1.905 1.911-.954 2.866.954 1.91-.954.955-.954 1.911.954.956.954.955 1.905 2.866.953.956.953.954.953.956 1.906.956.953.955-.953.955 1.907-.955.953-.955.952.955.953.955.953 1.911.953 1.911-2.859.954.953.957-.953 1.91.953.956.953.955.953.955.953 1.911.953 2.866.953-.955.954.955.953.956.952.955.953 1.911.954-.956-.954.956-.953 2.865.953.956.954 1.911.953.955.953.956-.953 5.732.953.955 1.906-.955.954.955-.954.955.954.956-.954 4.777.954 1.91-.954.956.954.955.953.955.952-.955.953 1.911.953.955.953.954.953-.954.953.954.953.957.954 1.911-.954.955-.953.955-.953.956-.953.955-.953.955-.953.955-.953.956-.952.955-.953.956-.954 2.866-.953 7.643.953.955.954.955.953-.955.952.955-.952.956.952.954-.952.956-.953.956.953.955.952 2.866 1.906.956 1.906-.956.953.956-.953 1.909-.953 3.823.953.955.953.956-.953 3.821-.953.955-2.859.956.953 2.866.953.955.953 1.91.953 1.911-1.906.956-.953.955 3.812.956.953-.956.954.956 1.905.955.953 1.911.953 3.821-.953.956.953.955-.953.955.953.955.953.956.953 1.911.953 2.866.954 6.687.954.956-.954.955.954 1.911 1.905.955.953.955.953.955.953.956 1.906.955 1.907.956.953.955.953.955.952.956 2.859-.956.953.956.953.955h.954l2.859.955.953 12.42 14.296-.955.953 1.911 5.718.955 7.624-.955 3.813-1.911 2.286-.382-.381.382.381-.382 3.431-.574.954-.956.953-.954.954-1.911-.954-.955-.953-5.733 5.718-.955.953-2.866-.953-1.911-.953-1.911.953-1.91.953-.955 3.812-.956 6.672-1.91 1.905.955 3.813.955.953-1.91 1.907-5.733.953-1.91.952-.956 1.906-2.867.953-.954.953-.956-.953-1.91-.953-.955.953-6.688 1.906-4.777 2.86-.956 1.905-.955 10.484.955.953-.955.953-.955.953-.955.954-3.822.953-1.911.952-1.91.953-.955.953-1.911 3.812-2.866 1.907-2.866 5.718-.956 1.907-.955.953-1.911.952-2.867.953-2.865-.953-4.777.953-.956.953-.955 1.906-1.91 1.906-2.866 1.907-.956 2.858-1.911.953-5.731 1.906-1.911 2.861-.957 1.905-.954.953-.955.953-.956.953-.955 1.906-.955 5.718-.956.953-.955 3.813-2.866.952-.956.953-2.866-.953-1.91-.952-3.822-.953-.955-1.907-2.866-.953-2.867-5.717-.955-.954-.955.954-3.821.953-3.822-6.672-1.911.953-4.776.953-1.911.953-1.911.953-2.866.953-3.821.954-2.867.953-.955.952-1.911.953-.955.953-.956.953-.955.953-.955.953-.955 3.812-.956.953.956.954 1.91.953.955 2.859 1.911.954.956.953.955 6.67 3.822 3.812-.956 3.812-.955 9.531-.956 1.907-3.821.952-.956-2.859-.955.954-.955-.954-.955-.953-.956 2.86.956 1.905-.956.953-.955 1.906-.955 2.86-.956.953-.955.953-.956 8.577-.955 2.859.955.953.956.953.955 4.765 4.777-.953.955-.952 1.911 1.905.955.953 3.822-.953.955 1.906.956 1.907.954.953-.954 2.859-.956.953-1.911.953-.955.953-.955 1.906-.956 2.86-.955-.953-1.911.953-.955 1.905-.955.953-.956.953-7.642-.953-.956-.953.956-.953.955-.952-.955-.953-5.734.953-1.909 1.905-.956 1.906 1.911.953.954 1.906-.954.954-.955.953-.956.953-.955.953-.955.953-.956.953-.955-.953-.955.953-1.911.953-.956.953.956.953-1.911.954-.955.953-.956.952-.955.953-1.911-.953-1.911-2.859-.955-2.859-.955-.953-.956-.953-2.866.953-.955-2.859-.956-.953 1.911-4.766.956-.953.955-.953-.955-1.905-.956-.954-6.687 4.765-.955.953-.956.953-.955.953-.956.953.956-.953 1.911 2.86.955 1.906.955.953 2.866.953-.955.953-2.866 2.86-.955 2.858-.956 1.906-1.911 1.906-.955 1.907.955.953.956.952.955.953-1.911-.953-.955 1.906-.955 1.907-.956 1.906-.955 2.859.955 1.906.956 4.766.955 1.905-.955 1.906.955 1.906-.955 1.906-1.911-.953-.955-2.859-.956-1.906.956-.952-.956-1.907-.955-.953-.955-.953-.957-.953-.954.953-.956.953-1.91.953-.956 1.907-.955 5.717 1.911.953.955 2.86-.955.953-.956 1.906-1.91-2.859-.956-1.906-.956-.954-.954-.953-2.866 2.86-.956.953-4.777.953-.955.953-2.866-.953-.955-.953-.956-.953.956-.953.955-1.907.955-.953 1.911-.953.955-1.906.955-5.718-.955-.953-3.821-.953-.955-3.811-.956-.954-1.911-.953-1.91 4.765-.956 1.906-.955 2.859-.955.954.955.953-.955 1.905-.956 1.906-.955.953-.955-.953-.957-.953-.954-.953.954-.953-3.82 1.906-.955.953-.956.953-.955.953-4.777-.953-.955.953.955-.953-.955-.953-.956-.953-.955-1.906.955-.952-.955-.953-1.911-1.907-.956-.953-.954-5.082-.85.318-.106 4.764-.955 1.906-1.911 1.907-.955.952-.956 2.859-.955 1.906.955.953-.955.954-.956 2.859.956.953 1.911-2.859.955-.953-.955-.954 2.866-1.906.955-.953.956.953 1.91 1.906 3.822 1.907-.956.953.956.953-.956 1.906-.955 3.813-2.867 1.905-.954.953.954.953 1.912-.953 4.776-1.905 1.91-2.86.956-.953-.956-.953 6.689.953 1.909 1.906.957.954 1.91 2.858.956 9.53-.956.953.956-1.906.955-.953.955-.952.956-.953.955-.954.955.954.956.953 1.911-1.907.955-1.906-.955.953.955 1.907.955-.954.956.954.955.953 2.866.952.955.953-.955-.953-.956.953-1.91.953-.955.953-.956.954-.955-.954-.955-.953-.956.953-.955-.953-1.911.953-.955.954-.956.953-1.91.953-5.732.954-.956-.954-.955-1.906-.955-.954.955-.953-.955.953-1.911-1.906-.956-1.905-.956-.953-.954-.954-2.866.954-.956.953-.955.952-.955.953-.956.953-.956.953 2.867.954.955.953.956.953.955.954.955 1.905.956 3.812.954.953-.954 3.812-.956 3.812 3.822.953.955.953-.955.954-.956 1.906-.956.953-.954.953-.956.953-.955-.953-.955-.953-1.911-.953-3.821.953-.956.953.956.953-.956 2.859.956 3.812-.956.953-.955 1.906-.956.953-.955-.953-.955.953-.956-3.812-.955-1.905-.956-1.907-.955-.953-1.91-1.906-1.911-.953-.956-.953-1.91-5.719-.956-1.906-.955-.953.955.953 1.911-.953.955-.953-2.866-.952-.955-.953-3.821-.954-.956-1.906-.955-.953.955-.953-.955-3.811-1.912-.954-.954-1.906.954-.954-3.82.954-3.822.953-.956 1.907-.954.953.954 1.905.956.953-1.91 2.859-3.822.953-.955-1.906-.955.953-.956.953.956.954.955.953-.955 2.858-1.912.953.956 1.906.956-.953 7.642 1.906.956 6.672 1.91 2.86-2.866.953.956.952-.956.953-.956-.953-2.865-.952-4.777.952-5.732 2.859-.955 3.813 2.866.953 1.91 2.858.955.954-.955 2.859-.955.954.955-.954 2.867-.953 2.866.953.955-1.906 1.911-.953.954.953.956.953 2.866.953-2.866.954-.956.953-1.91.952-.955.953.955.953-.955.953.955.953.956-.953 2.866.953.955.953.955.953 3.822-.953.954-.953.956-.953 1.911 1.906.956.953-.956.954-.955 2.858-.956.953.956-.953.955.953.956.953-.956.953-1.911 1.907-.956.953-.954.954-.955.952-.956-.952-1.911-.954-.955-.953-.955-.954-1.912.954-1.91 1.907-.955.952.955-.952 1.91 1.905.956-.953 2.866.571 2.293-.571.574.571-.574.382 1.529-.953 1.91.953 2.867.953.955-.953.955.953.956 1.906.955 2.86-.955 1.905.955.953-.955.953-.956.953-.955.953-.955-.953-.956.953-3.821-.953-3.822.953.956.953-4.778-.953-.954-.953.954-.953.956-.953-.956-.953.956-.952-.956-.953-.954 1.905-.956.953-1.91.953-.956 3.812-.955.954.955.476.477-.476.479.476-.479.477.479-.953.955.953.955 1.905.956-.953.954 1.907.956.953.956.953.955.953-.955.953.955.954.955.953.956.952.955.953.956.953-.956.953.956.953-.956.953-.955-.953-.956-1.906-.955-.953-.955.953-.956.953-.956.953-.954 2.86-1.911 2.858-.955 2.859-.956.954.956 2.86.955-.953-.955.953-.956.952-.955-.952-.955.952-.956-.952-.956-1.908.956-.952-.956-.954.956-.953-.956-.953-.955-.953-.955-.953-3.821.953-1.911.953-.956 3.812-.955.955.955 1.905.956.953-.956 1.906-2.866.953-1.91-.953-.956-3.811.956-2.86-.956-1.907-.955.953-1.912.954-1.909-1.907-.956-1.906-.955-4.765-.955-.953-2.867.953-1.91.953-2.866-.953-.956-1.906.956-.953.955-.953.955-2.858.956-1.907 1.91-.953.956-1.906.955-.954 1.911-.953.955-.952.956-.953 1.909.953.957.952.955 1.907.955.741 5.945-.741.743.741-.743.212 1.698 1.906.956-.953.955-.953.955-1.907-.955-.953.955-.952.956-.953.955-.954 3.822-3.812-.956-.953-.956-.953.956-.952.956-.953-3.822-.954-.955-.953-3.822.953-1.911-.953-1.91.953-1.911-.953-.955-.953-.956.953-.955-.953.955-.953-2.867-1.906-.954-7.625 1.911-.953-1.911.953-.955.953-3.822-1.906-.955-.953.955-1.905-.955-.954.955-.953-.955-.953-.956-1.906-.956-.953-2.865 1.906-.955.953-.956 1.906-.955 2.859-.955 2.859-.956 7.625.956.953-.956.953-.956.953-1.91-.953-.955-.953-.956.953-.955.953-.955.953-.956.954-1.911 1.905-1.91-.952-.955-.953-18.152.953-1.911.952-.955 4.765-.956 2.86-.956.952-1.91.953-3.821.954-1.911.953-3.821.953-8.599-.953-.955-.953-.955-1.907-.956-1.905.956-.954.955-.953-.955-.953-5.732-.953-2.867-1.906-1.91-.953-1.912.953-.954.953-.956-2.858-.955.952.955.953.956-2.858-.956-.954-.955-.953-3.822-.953-.955 1.906.955 1.907.956.952.955.953.956 1.906-.956-.953-.955.953-.956.953-.955-2.859-.956-.953-.955-.952-.955-2.86-.955 1.907-.956 1.905-1.91.953-.956 2.859-.955.953-2.866.953-.956.954-1.91-.954-.956-.953-1.91.953-.957 3.812-.954 3.813-.955-.953.955.953-.955 1.907-.956 3.811-.955.953-.955.953.955 1.906.955 1.907.956.952-.956.953-2.866-.953-.955-.952-.956.952-.956 3.812-.954 2.861-.956.953 1.91.952.956 5.718-.956.954-.954.953-.956 2.858-1.91.953-1.911 1.906-.955.953-2.866-2.859-.956-2.859.956-1.905.954-2.384.479-.476-.479.476.479-2.382.477-.953-.956.953-1.91-.953-.955-.953-.956-.952-2.866-.953-.955-.955-2.866-.952-.955-.954-1.911.954-.956-.954-.955-2.859-8.598-1.905-6.688-.953-.955-.954-.955-.953-.956-.953-.956-2.647-.53 1.694-.424 1.906.954.953.956.954.956.953.955-.953-1.911-.954-3.821-3.812-.955-1.906-.956-.952-.955-.953-.956-3.813-.955-3.812.955-.953-.955-1.907-.956-.953.956-1.906.955-2.858.956-.953.955-1.907.956-.953-.956-.953-.955-3.811-3.822 1.905-.955.953-.955 1.906-.956.953-.955.953-.955.954-1.911.953-1.911.952-1.911-.952-1.91.952-.956 2.859.956.953-3.823-.953-2.865.953 1.911 1.906 1.911.954.955 1.905 2.866 2.86.955 3.813.956 6.52-.655-.803 1.61h.953l.953-.955-.692-.696 2.599-.26.952.956 4.766-.956 1.907.956 1.905 1.91-.952 3.822 2.858.955.953-.955 1.906-.955 1.907-.956-.954-.955-.953-.956.953-1.91.954.955.953.955.952-.955.953.955.953.956 1.906.955-.953-.955-.953-.956.953-.955.953-.955.953-.956-2.859-.955-1.906.955-.952-.955-1.907.955v.956l-.953-1.911.953-.955.954-1.911.953-.955 1.905-1.911.953-4.777-.953-1.911-.953-.956.953-.954 2.859-.956.953.956.953-.956.954.956 1.906.954 8.577-.954 1.906-.956.953.956.953.954-.953.956-1.906 3.822-.953-.956-.952.956-.953.955-.954.956-1.906.955-.953.954-.953 1.912-.953.955-.953.956-.953.955-.953 1.911 1.906.955-.953.955-.953 1.911-.954.956-.953 1.91.953.956-.953 1.91-.953 1.911-.953-.956-.953-.955-.953.955-.953-.955-.952.955-1.907-.955-.953.955-1.906.956-1.906.955-1.905.956-.953.955-.955.956-.952 1.91.952.956-.952.954-.954 3.822-.953 2.867.953.955 1.906.954 5.719.957.953-.957.953-.954.953-.955.954-.956.953-.955 1.905-.956.953-.955.953-.955.953-.956-.953-1.91-.953-.956.953-.955.953-.955 4.766-.956 2.859.956.953-.956 3.813-1.911 5.717-2.866.953.955 2.859.956.953-.956 2.86-.955 2.86-1.91.953-1.911-.953-.955-.954.955-.953-.955-.953-.956-.954-.955.954-.956-.954-2.866-.953-.955.953-.955 4.767-.956.952-.955.953-.955.953-1.911-.953-.955-.953-.956.953-.955-1.905-.956-3.813 1.911-.954-.955-.953-1.911.953-1.911.954-.956.953-.954.953-.956.954-.955-.954-.955-.953.955-1.907-.955-.953.955-.953-.955-.953-2.866.953-.956-1.905-.956-.953.956-4.766-.956-.953-.955-.953-3.821.953-.955 1.906-.956 1.906.956.953-.956 3.812-.955 1.906-.956.954-4.776-.954-.956 1.907-.955.953.955.954-.955.953-.955 5.717.955 1.907.955 1.905-.955 1.906.955.953.956.953-.956.953-.955.953-2.866-.953-.955.953-2.866.954-.956-.954-.955.954-.955.953-.957 1.906-.954.953-5.732-.953-.956-1.906-.956 3.812-.954 1.906-.956-.953-1.911-.953-1.91.953-1.911-.953-1.911.953-.955 2.86.955.953-.955.952.955.953.955 1.906-.955 7.624.955.954-1.91.953-.955.953-.956 1.907-.955 1.905-.955 3.812-3.822-.953-.955-.953-.956-.953-.955-.953-.955-.952-.956-.953-1.91-.954-.957-1.906-.954.953-.955-.953-.956-.953-.955.953-1.911.953-1.911-.953-.956-.953-1.91 1.906-.955 1.907.955.953-.955-.953-.955-.954-.956-.953-.955-.953-1.911-.953-1.911-.954-1.91-.953-.956-.953-1.91-1.905-.956-.954-.955-.953-.956-.953-.955.953-.955-.953-.955-.953-.956.953-.955-.953-.956.953-2.867-1.906-.954-.953.954-.953-.954-.952-.955-.953.955-1.907.954-.953-.954-.953.954-.953.957-.953-.957-.954-.954-.952-2.866.952-1.911-.952-.955-1.907-.956-.953.956-1.906.955-2.859.956-2.859-.956-2.859.956-.953-.956-3.811.956-.954 3.821-.953.954-.953-.954-2.86.954-.953 1.912-.952.955-.953.956-.954.955-.953.956-.953.955-.953.955-.953.955-.953.956-1.905-.956-.953-1.91-.954-.955-.953-.956-.953-.955-.953-.956-.953-.955-.953.955-2.859.956-1.907.955 1.907.956-.954.955-.953.955-.953.955-1.906.956.953.955-.953.956.953 1.91-.953-.955-.953.955-.953-.955-.952.955-1.907-.955-.953.955-.953.956-.953-.956-.953.956-.953.955-.953-.955-.952-.956-.953-.955-.955-.955-.952.955-.954.955 1.906.956-3.812.955-.953.955-.953-.955-.952-.955-.953-.956-.954.956-1.906.955-1.906-.955.953-2.866.953.955.953-.955-1.906-.956-.953-.955.953-.956-1.906-.955-.953-.955-.952-.955-.953-.956 1.905-.955-.952-.956-.953-.955-.954-.955-.953-.957-.953-.954-.953-.955-.953-1.911-.954-.955-.953-.956-.952-1.911.952-.956.953-.954.954-.956-.954-.955.954-5.733-.954-1.91.954-.955-.954-1.911-.953-.955-.952-.956-.953-.955-.954.955-.953.956-.953-.956-.953-.955.953-1.911.953-1.91.953-.956-4.765-.955-.953-.955-.952-1.911-.953-.957.953-.954-.953-1.911.953-.955.952-.955.953-.956.953-.955-.953-.955-.953-.957.953-1.909-.953-.956h-2.859l-2.859-.955-.953.955-1.906.956-.952-.956-2.861.956-.953-.956-1.906-.955.953 1.911-2.859.955-2.859.954-.953 7.644-.953.954-.953.957-.953 1.911.953 2.866-.953 2.865-.953 2.867-.953.955-1.905.955-2.86.956-.953-2.866-.954-.956-3.811-.955-2.86.955-.953.956-1.906 1.91-.953.956-1.905.955.953 2.866-.953.956-1.907.955-.953.955-4.765 1.911-.953 1.911-.954 2.866-.953 1.911-.953.955-.635.637-.318-.637.953-.955h-.953l-.953-.956-.953.956-.953.955-.952-.955-1.907.955-.953-.955-.953.955-.953-.955-.953.955-.953-.955-6.672-.956-1.906-.955-.953-4.777.953-1.911-.953-.955-.952-.955-1.907.955-.953.955-.953.956-.953.955-.953-.955-.953-.956-1.905.956-.953-.956-1.907-.955-.953-.955-1.906-.956-3.812-.956-.954-.954-.953 1.91.953 1.911-3.812.955-.953.956.953.955-.953.955-.953.956-1.905-.956-4.766-.955-.953-1.911-.953-.955-.952-2.867-1.907-.954.954-.956-.954-.955-.953-.956-.953.956-.954-1.911.954-1.911 2.86-.955.953-.956.952-.955.953-1.91.953-.956-.953-3.821.953-2.866.953-.956-.953-.955-.953-3.821-.953-1.911-.952-.955-.953-.956-.954-2.866.954-.955-.954-.956 2.859-.956.953-.954-.953-.956-.952-.955-.953-.955-.954-.956-.953-1.91-.953-2.867-.954-.955-.953-.955-1.906-.956.953-.955-.953-.955.953-.956.953-1.911-.953-.955-.953-3.821-.952-.956-.953-.955.953-2.866.952-.955-.952-.956-.953-.955.953-.956-.953-.955-.954-2.867-.953-.954-1.906-.956.953-.955-1.906-.955-3.811-.956-.954-.955-.953-.955-.953-.956-.953-.956-.953-.955-.953-5.732-.953-1.911.953-1.91.953-.955-.953-.956-.953-.955-.953-3.822.953-.955.953-.955.953-.956.953-.955 1.906-.955.953-.956.954-.955 2.858-.956.953-.956.953-3.82.953-3.822-.953-.956-2.859-.954-1.905.954-.954-1.91.954-.955.953-.956 1.905-.955.953-.955.953-.956.953-1.911.953-1.91-.953-.955-3.812-.956-2.859-.955-.953-.955-.953-.956-.953-1.911-.953-.955-.953-.955-.953-.956.953-2.866L427.916 0l-.953.955Z" fill="url(#b)"/></g></svg>